<?xml version="1.0" standalone="no"?>
<!DOCTYPE svg PUBLIC "-//W3C//DTD SVG 20010904//EN"
 "http://www.w3.org/TR/2001/REC-SVG-20010904/DTD/svg10.dtd">
<svg version="1.0" xmlns="http://www.w3.org/2000/svg"
 width="260.000000pt" height="260.000000pt" viewBox="0 0 260.000000 260.000000"
 preserveAspectRatio="xMidYMid meet">
<metadata>
Created by potrace 1.11, written by Peter Selinger 2001-2013
</metadata>
<g transform="translate(0.000000,260.000000) scale(0.100000,-0.100000)"
fill="#000000" stroke="none">
<path d="M1250 2134 c-191 -38 -385 -151 -487 -286 -91 -119 -115 -171 -61
-134 35 25 118 16 118 -13 0 -5 -35 -35 -77 -67 -42 -33 -102 -78 -132 -101
l-56 -42 -47 46 c-34 33 -44 49 -35 55 8 5 5 8 -10 8 -12 0 -24 -4 -27 -9 -3
-4 41 -56 98 -115 110 -112 111 -112 183 -91 6 2 17 -2 23 -10 9 -11 6 -17
-14 -30 -14 -10 -26 -21 -26 -25 0 -19 376 -320 400 -320 14 0 13 4 -9 42 -27
46 -103 237 -135 336 -48 154 -30 237 51 230 47 -4 69 -34 89 -118 38 -166
132 -403 159 -403 26 0 116 217 154 370 11 45 27 96 36 113 28 54 107 52 134
-4 11 -23 11 -40 1 -90 -34 -180 -178 -511 -244 -564 -46 -36 -42 -40 76 -96
62 -30 124 -57 138 -61 14 -4 30 -11 35 -16 12 -9 131 -44 220 -65 33 -8 119
-17 192 -21 144 -7 254 6 336 38 53 21 72 24 42 7 -53 -31 -158 -59 -261 -70
-455 -47 -986 192 -1516 683 -58 55 -111 99 -116 99 -5 0 -22 -17 -38 -37 -15
-21 -59 -76 -98 -122 l-70 -84 -13 29 c-17 40 -11 61 64 196 l66 119 -27 28
-27 28 -57 -30 c-87 -47 -182 -147 -224 -237 -49 -103 -62 -165 -55 -274 12
-221 145 -400 362 -487 l60 -24 875 -3 c555 -2 892 1 922 7 107 23 225 103
287 195 77 115 101 266 62 394 -24 79 -85 178 -139 222 -52 43 -164 98 -217
106 -38 5 -46 10 -51 33 -41 203 -111 332 -251 461 -90 83 -174 133 -293 172
-83 27 -111 31 -220 34 -69 1 -136 0 -150 -2z m683 -555 c20 -17 55 -61 78
-99 71 -120 173 -391 185 -492 6 -52 4 -58 -19 -82 -26 -25 -29 -26 -164 -26
-151 0 -179 8 -201 54 -11 22 -11 33 -1 58 15 38 43 48 130 48 55 0 69 3 69
15 0 53 -122 335 -145 335 -27 0 -132 -243 -165 -382 -19 -79 -46 -127 -77
-134 -38 -10 -76 7 -92 41 -13 26 -12 40 3 115 10 46 40 141 67 210 133 332
226 427 332 339z"/>
</g>
</svg>
